Coordinates
version=1
nRows=16
nColumns=63
inDegrees=yes

Units are S.I. units (second, meters, Newtons, ...)
If the header above contains a line with 'inDegrees', this indicates whether rotational values are in degrees (yes) or radians (no).

endheader
time	pelvis_tilt	pelvis_list	pelvis_rotation	pelvis_tx	pelvis_ty	pelvis_tz	hip_flexion_r	hip_adduction_r	hip_rotation_r	knee_angle_r	knee_angle_r_beta	ankle_angle_r	subtalar_angle_r	mtp_angle_r	hip_flexion_l	hip_adduction_l	hip_rotation_l	knee_angle_l	knee_angle_l_beta	ankle_angle_l	subtalar_angle_l	mtp_angle_l	L5_S1_Flex_Ext	L5_S1_Lat_Bending	L5_S1_axial_rotation	L4_L5_Flex_Ext	L4_L5_Lat_Bending	L4_L5_axial_rotation	L3_L4_Flex_Ext	L3_L4_Lat_Bending	L3_L4_axial_rotation	L2_L3_Flex_Ext	L2_L3_Lat_Bending	L2_L3_axial_rotation	L1_L2_Flex_Ext	L1_L2_Lat_Bending	L1_L2_axial_rotation	L1_T12_Flex_Ext	L1_T12_Lat_Bending	L1_T12_axial_rotation	Abs_r3	Abs_r2	Abs_r1	Abs_t1	Abs_t2	neck_flexion	neck_bending	neck_rotation	arm_flex_r	arm_add_r	arm_rot_r	elbow_flex_r	pro_sup_r	wrist_flex_r	wrist_dev_r	arm_flex_l	arm_add_l	arm_rot_l	elbow_flex_l	pro_sup_l	wrist_flex_l	wrist_dev_l
1.233333	-0.533336	-10.060470	82.760434	0.267113	0.882718	0.610112	14.226484	-1.182078	-16.778742	11.846002	0.206752	28.928598	-15.354919	0.000000	11.850062	0.909386	33.949669	8.076795	0.140967	12.882503	16.186545	0.000000	-0.145885	-0.489138	2.574690	-0.270924	-0.650554	2.735609	-0.239675	-1.189291	2.735609	-0.166733	-1.189291	2.252854	-0.135469	-0.997451	2.091936	-0.083359	-0.757675	1.931018	-1.042045	-5.533231	14.319656	0.000000	0.000000	20.678079	0.403484	-8.873792	10.953479	-10.009576	141.263054	2.069944	1.125980	-4.528656	-15.207138	12.965243	-9.477392	159.944366	1.193077	3.124429	-15.103536	-13.920072
1.250000	-0.588779	-10.527390	82.254264	0.267492	0.882258	0.611570	15.223334	-1.172294	-18.846634	12.381206	0.216093	28.357007	-15.505165	0.000000	12.397272	0.812599	35.149925	8.119248	0.141708	11.949385	16.804269	0.000000	-0.161696	-0.500044	2.655193	-0.300286	-0.665058	2.821142	-0.265651	-1.215806	2.821142	-0.184803	-1.215806	2.323294	-0.150151	-1.019689	2.157344	-0.092393	-0.774568	1.991395	-1.154980	-5.656593	14.767385	0.000000	0.000000	20.708928	-0.039483	-8.882974	11.050559	-9.796018	137.200156	2.303453	1.254291	-3.256525	-15.975496	12.995745	-9.404835	160.597861	0.933604	3.285642	-16.165857	-13.870243
1.266667	-0.578679	-11.055311	81.864991	0.267662	0.881607	0.613266	16.270966	-1.086599	-20.290258	12.853766	0.224341	28.055400	-15.562723	0.000000	13.076813	0.679185	36.132332	8.199848	0.143114	11.543047	17.282988	0.000000	-0.182507	-0.501817	2.689875	-0.338933	-0.667416	2.857992	-0.299840	-1.220117	2.857992	-0.208587	-1.220117	2.353640	-0.169476	-1.023305	2.185523	-0.104284	-0.777314	2.017406	-1.303626	-5.676651	14.960276	0.000000	0.000000	20.912052	-0.402164	-8.688650	11.236338	-9.571344	133.422127	2.499243	1.316670	-2.030837	-16.735521	13.033040	-9.337603	160.844831	0.757776	3.496088	-17.409166	-13.880960
1.283333	-0.491650	-11.649193	81.620646	0.267606	0.880765	0.615222	17.358998	-0.921786	-21.083226	13.236230	0.231016	27.998943	-15.538535	0.000000	13.899775	0.508656	36.863961	8.319571	0.145204	11.663954	17.605031	0.000000	-0.207703	-0.493423	2.676711	-0.385726	-0.656253	2.844005	-0.341236	-1.199709	2.844005	-0.237384	-1.199709	2.342122	-0.192873	-1.006189	2.174828	-0.118682	-0.764312	2.007533	-1.483605	-5.581702	14.887064	0.000000	0.000000	21.263384	-0.681628	-8.290960	11.519589	-9.343128	129.980810	2.659066	1.274783	-0.870311	-17.445709	13.077016	-9.261622	160.731231	0.639055	3.705531	-18.811230	-13.944794
1.300000	-0.326390	-12.308775	81.528411	0.267342	0.879748	0.617408	18.478156	-0.682653	-21.201523	13.519874	0.235966	28.174001	-15.451532	0.000000	14.854355	0.303500	37.347892	8.457452	0.147610	12.279418	17.759113	0.000000	-0.235881	-0.475389	2.622122	-0.438055	-0.632267	2.786005	-0.387529	-1.155860	2.786005	-0.269589	-1.155860	2.294357	-0.219039	-0.969412	2.130474	-0.134783	-0.736377	1.966592	-1.684877	-5.377690	14.583457	0.000000	0.000000	21.732714	-0.879149	-7.733118	11.894177	-9.121809	126.839364	2.781483	1.204456	0.201658	-18.081582	13.127800	-9.161565	160.442888	0.536696	3.842396	-20.337058	-14.032603
1.316667	-0.096115	-13.032792	81.601015	0.266890	0.878564	0.619789	19.617529	-0.394702	-20.699773	13.703976	0.239180	28.556664	-15.307943	0.000000	15.934929	0.086365	37.578888	8.616104	0.150379	13.333070	17.793198	0.000000	-0.265164	-0.450005	2.528690	-0.492436	-0.598506	2.686733	-0.435638	-1.094142	2.686733	-0.303056	-1.094142	2.212604	-0.246231	-0.917650	2.054561	-0.151515	-0.697057	1.896517	-1.894039	-5.090544	14.063815	0.000000	0.000000	22.275914	-0.963196	-6.994331	12.361509	-8.906660	124.224472	2.855223	1.140694	1.080049	-18.596525	13.182758	-9.050026	159.815385	0.464890	3.958818	-21.936426	-14.191926
1.333333	0.186495	-13.825101	81.863959	0.266266	0.877193	0.622277	20.766922	-0.079417	-19.647466	13.791658	0.240710	29.141864	-15.176585	0.000000	17.142127	-0.116519	37.615380	8.813875	0.153831	14.764452	17.762657	0.000000	-0.291698	-0.419927	2.400996	-0.541711	-0.558503	2.551058	-0.479230	-1.021011	2.551058	-0.333381	-1.021011	2.100871	-0.270870	-0.856316	1.950809	-0.166676	-0.650467	1.800747	-2.083566	-4.750302	13.353619	0.000000	0.000000	22.850574	-0.940442	-6.129611	12.890851	-8.702358	122.103108	2.877280	1.092455	1.759759	-19.054379	13.237259	-8.929056	159.084014	0.395744	3.999516	-23.635428	-14.423982
1.350000	0.505542	-14.658953	82.294868	0.265527	0.875694	0.624802	21.893655	0.243550	-18.142894	13.795956	0.240785	29.897646	-15.056192	0.000000	18.409973	-0.299117	37.516124	8.999201	0.157066	16.468538	17.684726	0.000000	-0.317237	-0.387617	2.250539	-0.589140	-0.515530	2.391198	-0.521188	-0.942451	2.391198	-0.362570	-0.942451	1.969222	-0.294586	-0.790428	1.828563	-0.181269	-0.600418	1.687904	-2.265991	-4.384796	12.516823	0.000000	0.000000	23.436969	-0.815241	-5.173203	13.473581	-8.514001	120.622509	2.847851	1.056274	2.215373	-19.397792	13.308650	-8.805590	158.120844	0.344698	3.996233	-25.266829	-14.741111
1.366667	0.852859	-15.534332	82.886198	0.264681	0.874059	0.627311	22.982873	0.566871	-16.313058	13.703453	0.239170	30.800829	-14.958759	0.000000	19.750428	-0.442072	37.300273	9.228692	0.161071	18.391614	17.607686	0.000000	-0.338795	-0.353970	2.083893	-0.629177	-0.470780	2.214136	-0.556607	-0.860643	2.214136	-0.387209	-0.860643	1.823406	-0.314605	-0.721816	1.693163	-0.193588	-0.548300	1.562920	-2.419980	-4.004182	11.589987	0.000000	0.000000	23.991157	-0.607381	-4.128336	14.069530	-8.346903	119.826912	2.737257	1.022938	2.483222	-19.695559	13.387361	-8.675980	156.971907	0.302581	3.930596	-26.863863	-15.155839
1.383333	1.217316	-16.434807	83.617464	0.263797	0.872347	0.629778	24.043410	0.875349	-14.235141	13.566640	0.236783	31.829684	-14.897281	0.000000	21.111343	-0.547399	37.012967	9.436700	0.164701	20.436052	17.539804	0.000000	-0.357047	-0.320787	1.907724	-0.663072	-0.426647	2.026956	-0.586592	-0.779961	2.026956	-0.408069	-0.779961	1.669258	-0.331554	-0.654149	1.550025	-0.204017	-0.496899	1.430793	-2.550351	-3.628805	10.610186	0.000000	0.000000	24.518162	-0.295599	-3.006105	14.659186	-8.187529	119.763729	2.537488	0.987151	2.521265	-19.918903	13.490004	-8.550520	155.658213	0.272423	3.815644	-28.321257	-15.658595
1.400000	1.607272	-17.352865	84.467664	0.262881	0.870598	0.632203	25.057872	1.178549	-12.023322	13.351504	0.233028	32.949313	-14.786440	0.000000	22.504311	-0.621061	36.678735	9.671228	0.168795	22.565899	17.486056	0.000000	-0.371083	-0.286463	1.733362	-0.689139	-0.380996	1.841697	-0.609653	-0.696507	1.841697	-0.424111	-0.696507	1.516692	-0.344588	-0.584156	1.408357	-0.212037	-0.443732	1.300022	-2.650611	-3.240529	9.640440	0.000000	0.000000	24.987264	0.054899	-1.848425	15.202573	-8.051898	120.187576	2.244153	0.957178	2.425277	-20.126903	13.628445	-8.406259	154.275514	0.249594	3.648639	-29.662056	-16.234891
1.416667	2.021913	-18.279314	85.391311	0.261985	0.868875	0.634641	26.037672	1.481512	-9.724675	13.058811	0.227919	34.102368	-14.620740	0.000000	23.912841	-0.678524	36.337184	9.912476	0.173005	24.714247	17.406817	0.000000	-0.380936	-0.250701	1.570774	-0.707436	-0.333433	1.668947	-0.625839	-0.609555	1.668947	-0.435371	-0.609555	1.374427	-0.353737	-0.511230	1.276254	-0.217667	-0.388336	1.178080	-2.720985	-2.835984	8.736173	0.000000	0.000000	25.387856	0.421972	-0.683478	15.706688	-7.944568	121.065501	1.868494	0.929825	2.235313	-20.324007	13.821071	-8.235358	152.925779	0.235300	3.436577	-30.883827	-16.863456
1.433333	2.322945	-19.167932	86.220068	0.261554	0.867423	0.636954	26.897416	1.755427	-6.912738	12.605236	0.220003	35.086043	-14.884260	0.000000	25.210797	-0.711231	35.871825	10.061982	0.175615	26.779630	17.307450	0.000000	-0.388839	-0.233582	1.413920	-0.722113	-0.310665	1.502290	-0.638824	-0.567932	1.502290	-0.444404	-0.567932	1.237180	-0.361076	-0.476321	1.148810	-0.222183	-0.361819	1.060440	-2.777440	-2.642330	7.863800	0.000000	0.000000	25.576776	0.898176	0.475354	16.852436	-7.335291	126.807714	0.061926	-2.676557	2.640795	-21.539213	14.017456	-8.180345	151.611940	0.224500	3.180907	-32.133425	-17.531400
1.450000	2.729316	-20.038633	87.115970	0.261068	0.866010	0.639430	27.731673	2.054612	-4.509214	12.065152	0.210577	35.982463	-14.815684	0.000000	26.565643	-0.772395	35.438231	10.310415	0.179951	28.767563	17.251348	0.000000	-0.393199	-0.204081	1.283597	-0.730211	-0.271428	1.363822	-0.645987	-0.496203	1.363822	-0.449388	-0.496203	1.123148	-0.365125	-0.416162	1.042923	-0.224674	-0.316122	0.962698	-2.808584	-2.308608	7.138983	0.000000	0.000000	25.674305	1.258733	1.566748	17.677569	-7.099158	129.718286	-0.748964	-4.285091	2.762086	-22.197917	14.290064	-8.029157	150.499673	0.218525	2.922463	-33.341321	-18.176598
1.466667	3.209753	-20.885730	88.002772	0.260654	0.864654	0.642067	28.555511	2.363667	-2.590014	11.466337	0.200125	36.714920	-14.456578	0.000000	27.960518	-0.862935	35.019435	10.653552	0.185940	30.568083	17.253640	0.000000	-0.392565	-0.167115	1.188420	-0.729033	-0.222263	1.262696	-0.644945	-0.406323	1.262696	-0.448663	-0.406323	1.039868	-0.364536	-0.340781	0.965591	-0.224312	-0.258861	0.891315	-2.804054	-1.890438	6.609636	0.000000	0.000000	25.667310	1.503553	2.523232	18.232570	-7.206998	130.058876	-0.633592	-4.100082	2.641156	-22.318454	14.626959	-7.809935	149.624532	0.216511	2.682460	-34.519125	-18.791178
1.483333	3.719421	-21.688319	88.787872	0.260475	0.863394	0.644817	29.356717	2.683676	-1.001119	10.837081	0.189143	37.196553	-14.063874	0.000000	29.333488	-0.996634	34.583114	11.055727	0.192959	32.082202	17.301011	0.000000	-0.389932	-0.128712	1.137844	-0.724143	-0.171187	1.208960	-0.640619	-0.312951	1.208960	-0.445653	-0.312951	0.995614	-0.362091	-0.262470	0.924498	-0.222807	-0.199375	0.853383	-2.785245	-1.456018	6.328348	0.000000	0.000000	25.575140	1.663475	3.344590	18.542018	-7.586419	128.127546	0.277540	-2.357673	2.333656	-22.010165	15.023428	-7.558899	149.015625	0.216770	2.478726	-35.659381	-19.356547
